<svg width="85" height="85" viewBox="0 0 85 85" fill="none" xmlns="http://www.w3.org/2000/svg">
<path d="M85 42.5C85 65.9721 65.9721 85 42.5 85C19.0279 85 0 65.9721 0 42.5C0 19.0279 19.0279 0 42.5 0C65.9721 0 85 19.0279 85 42.5Z" fill="#533C80"/>
<path d="M53.4287 48.7142V47.5714C53.4287 47.2683 53.5491 46.9776 53.7634 46.7633C53.9777 46.5489 54.2684 46.4285 54.5715 46.4285C54.8746 46.4285 55.1653 46.5489 55.3796 46.7633C55.594 46.9776 55.7144 47.2683 55.7144 47.5714V58.9999H58.0001V47.5714C57.9992 46.6623 57.6377 45.7908 56.9949 45.148C56.3521 44.5052 55.4806 44.1437 54.5715 44.1428C53.9812 44.1466 53.402 44.3045 52.8915 44.6011C52.4289 43.8522 51.6921 43.3137 50.8382 43.1002C49.9842 42.8867 49.0807 43.0152 48.3201 43.4582C48.0127 42.9688 47.5862 42.5653 47.0806 42.2853C46.575 42.0053 46.0066 41.858 45.4287 41.8571C45.0384 41.8611 44.6517 41.9326 44.2858 42.0685V36.1428C44.2858 35.2335 43.9246 34.3614 43.2816 33.7184C42.6386 33.0755 41.7666 32.7142 40.8572 32.7142C39.9479 32.7142 39.0759 33.0755 38.4329 33.7184C37.7899 34.3614 37.4287 35.2335 37.4287 36.1428V48.8342L34.8744 47.0857V47.0868C34.1765 46.5768 33.3116 46.3494 32.4531 46.45C31.5946 46.5507 30.8059 46.972 30.2448 47.6296C29.6838 48.2871 29.392 49.1324 29.4277 49.996C29.4635 50.8597 29.8243 51.6779 30.4378 52.2868L37.7978 58.9999L39.3372 57.3108L32.0481 50.6617C31.9421 50.5563 31.858 50.4309 31.8007 50.2928C31.7434 50.1547 31.7141 50.0066 31.7144 49.8571C31.7144 49.6448 31.7735 49.4368 31.8851 49.2563C31.9966 49.0757 32.1563 48.9298 32.3461 48.8349C32.536 48.74 32.7485 48.6998 32.9599 48.7189C33.1713 48.7379 33.3732 48.8155 33.543 48.9428L39.7144 53.1657V36.1428C39.7144 35.8397 39.8348 35.549 40.0491 35.3347C40.2634 35.1204 40.5541 34.9999 40.8572 34.9999C41.1603 34.9999 41.451 35.1204 41.6654 35.3347C41.8797 35.549 42.0001 35.8397 42.0001 36.1428V48.7142H44.2858V45.2857C44.2858 44.9826 44.4062 44.6919 44.6205 44.4775C44.8349 44.2632 45.1256 44.1428 45.4287 44.1428C45.7318 44.1428 46.0225 44.2632 46.2368 44.4775C46.4511 44.6919 46.5715 44.9826 46.5715 45.2857V48.7142H48.8572V46.4285C48.8572 46.1254 48.9776 45.8347 49.192 45.6204C49.4063 45.4061 49.697 45.2857 50.0001 45.2857C50.3032 45.2857 50.5939 45.4061 50.8082 45.6204C51.0225 45.8347 51.143 46.1254 51.143 46.4285V48.7142H53.4287Z" fill="white"/>
<path d="M55.7143 38.4286H48.8571V36.1429H55.7143V29.2857H28.2857V36.1429H32.8571V38.4286H28.2857C27.6797 38.428 27.0987 38.187 26.6701 37.7584C26.2416 37.3299 26.0006 36.7489 26 36.1429V29.2857C26.0006 28.6797 26.2416 28.0987 26.6701 27.6701C27.0987 27.2416 27.6797 27.0006 28.2857 27H55.7143C56.3203 27.0006 56.9013 27.2416 57.3299 27.6701C57.7584 28.0987 57.9994 28.6797 58 29.2857V36.1429C57.9994 36.7489 57.7584 37.3299 57.3299 37.7584C56.9013 38.187 56.3203 38.428 55.7143 38.4286Z" fill="white"/>
</svg>
