<svg width="85" height="85" viewBox="0 0 85 85" fill="none" xmlns="http://www.w3.org/2000/svg">
<path d="M85 42.5C85 65.9721 65.9721 85 42.5 85C19.0279 85 0 65.9721 0 42.5C0 19.0279 19.0279 0 42.5 0C65.9721 0 85 19.0279 85 42.5Z" fill="#533C80"/>
<path d="M42.9412 42.0588C43.9396 42.0588 44.8972 42.4555 45.6032 43.1615C46.3092 43.8675 46.7059 44.8251 46.7059 45.8235H44.8235C44.8235 45.3243 44.6252 44.8455 44.2722 44.4925C43.9192 44.1395 43.4404 43.9412 42.9412 43.9412H29.7647C29.2655 43.9412 28.7867 44.1395 28.4337 44.4925C28.0807 44.8455 27.8824 45.3243 27.8824 45.8235V48.6471C27.8824 51.2955 30.8546 53.3529 36.3529 53.3529C37.3845 53.3529 38.3256 53.2814 39.1765 53.1459V55.0414C38.2993 55.1694 37.3562 55.2353 36.3529 55.2353C29.9304 55.2353 26 52.5134 26 48.6471V45.8235C26 44.8251 26.3966 43.8675 27.1027 43.1615C27.8087 42.4555 28.7662 42.0588 29.7647 42.0588H42.9412ZM54.2353 45.8235H56.1176C56.1176 44.8251 55.721 43.8675 55.015 43.1615C54.309 42.4555 53.3514 42.0588 52.3529 42.0588H47.1482C47.6402 42.6073 48.02 43.2468 48.2664 43.9412H52.3529C52.8522 43.9412 53.331 44.1395 53.684 44.4925C54.037 44.8455 54.2353 45.3243 54.2353 45.8235ZM36.3529 27C37.2181 27 38.0748 27.1704 38.8741 27.5015C39.6735 27.8326 40.3998 28.3179 41.0115 28.9296C41.6233 29.5414 42.1086 30.2677 42.4397 31.067C42.7708 31.8663 42.9412 32.7231 42.9412 33.5882C42.9412 34.4534 42.7708 35.3101 42.4397 36.1094C42.1086 36.9088 41.6233 37.635 41.0115 38.2468C40.3998 38.8586 39.6735 39.3439 38.8741 39.675C38.0748 40.0061 37.2181 40.1765 36.3529 40.1765C34.6056 40.1765 32.9299 39.4824 31.6944 38.2468C30.4588 37.0113 29.7647 35.3355 29.7647 33.5882C29.7647 31.8409 30.4588 30.1652 31.6944 28.9296C32.9299 27.6941 34.6056 27 36.3529 27ZM36.3529 28.8824C35.1049 28.8824 33.9079 29.3781 33.0254 30.2607C32.1429 31.1432 31.6471 32.3402 31.6471 33.5882C31.6471 34.8363 32.1429 36.0333 33.0254 36.9158C33.9079 37.7983 35.1049 38.2941 36.3529 38.2941C37.601 38.2941 38.798 37.7983 39.6805 36.9158C40.563 36.0333 41.0588 34.8363 41.0588 33.5882C41.0588 32.3402 40.563 31.1432 39.6805 30.2607C38.798 29.3781 37.601 28.8824 36.3529 28.8824ZM49.5294 30.7647C50.7775 30.7647 51.9744 31.2605 52.857 32.143C53.7395 33.0256 54.2353 34.2225 54.2353 35.4706C54.2353 36.7187 53.7395 37.9156 52.857 38.7982C51.9744 39.6807 50.7775 40.1765 49.5294 40.1765C48.2813 40.1765 47.0844 39.6807 46.2019 38.7982C45.3193 37.9156 44.8235 36.7187 44.8235 35.4706C44.8235 34.2225 45.3193 33.0256 46.2019 32.143C47.0844 31.2605 48.2813 30.7647 49.5294 30.7647ZM49.5294 32.6471C48.7806 32.6471 48.0624 32.9445 47.5329 33.4741C47.0034 34.0036 46.7059 34.7217 46.7059 35.4706C46.7059 36.2194 47.0034 36.9376 47.5329 37.4671C48.0624 37.9966 48.7806 38.2941 49.5294 38.2941C50.2783 38.2941 50.9964 37.9966 51.5259 37.4671C52.0555 36.9376 52.3529 36.2194 52.3529 35.4706C52.3529 34.7217 52.0555 34.0036 51.5259 33.4741C50.9964 32.9445 50.2783 32.6471 49.5294 32.6471ZM58 50.5294V56.1765C58 56.9253 57.7025 57.6435 57.173 58.173C56.6435 58.7025 55.9253 59 55.1765 59H43.8824C43.1335 59 42.4153 58.7025 41.8858 58.173C41.3563 57.6435 41.0588 56.9253 41.0588 56.1765V50.5294C41.0588 49.7806 41.3563 49.0624 41.8858 48.5329C42.4153 48.0034 43.1335 47.7059 43.8824 47.7059H55.1765C55.9253 47.7059 56.6435 48.0034 57.173 48.5329C57.7025 49.0624 58 49.7806 58 50.5294ZM55.1765 57.1176C55.1765 56.868 55.2756 56.6286 55.4521 56.4521C55.6286 56.2756 55.868 56.1765 56.1176 56.1765V54.2941C55.3688 54.2941 54.6506 54.5916 54.1211 55.1211C53.5916 55.6506 53.2941 56.3688 53.2941 57.1176H55.1765ZM56.1176 50.5294C55.868 50.5294 55.6286 50.4303 55.4521 50.2537C55.2756 50.0772 55.1765 49.8379 55.1765 49.5882H53.2941C53.2941 50.3371 53.5916 51.0553 54.1211 51.5848C54.6506 52.1143 55.3688 52.4118 56.1176 52.4118V50.5294ZM43.8824 49.5882C43.8824 49.8379 43.7832 50.0772 43.6067 50.2537C43.4302 50.4303 43.1908 50.5294 42.9412 50.5294V52.4118C43.69 52.4118 44.4082 52.1143 44.9377 51.5848C45.4672 51.0553 45.7647 50.3371 45.7647 49.5882H43.8824ZM42.9412 56.1765C43.1908 56.1765 43.4302 56.2756 43.6067 56.4521C43.7832 56.6286 43.8824 56.868 43.8824 57.1176H45.7647C45.7647 56.3688 45.4672 55.6506 44.9377 55.1211C44.4082 54.5916 43.69 54.2941 42.9412 54.2941V56.1765ZM49.5294 50.5294C48.7806 50.5294 48.0624 50.8269 47.5329 51.3564C47.0034 51.8859 46.7059 52.6041 46.7059 53.3529C46.7059 54.1018 47.0034 54.82 47.5329 55.3495C48.0624 55.879 48.7806 56.1765 49.5294 56.1765C50.2783 56.1765 50.9964 55.879 51.5259 55.3495C52.0555 54.82 52.3529 54.1018 52.3529 53.3529C52.3529 52.6041 52.0555 51.8859 51.5259 51.3564C50.9964 50.8269 50.2783 50.5294 49.5294 50.5294Z" fill="white"/>
</svg>
