<svg width="85" height="85" viewBox="0 0 85 85" fill="none" xmlns="http://www.w3.org/2000/svg">
<path d="M85 42.5C85 65.9721 65.9721 85 42.5 85C19.0279 85 0 65.9721 0 42.5C0 19.0279 19.0279 0 42.5 0C65.9721 0 85 19.0279 85 42.5Z" fill="#533C80"/>
<path d="M42.5 24L27 30.9091V41.2727C27 50.8591 33.6133 59.8236 42.5 62C51.3867 59.8236 58 50.8591 58 41.2727V30.9091L42.5 24ZM54.5556 41.2727C54.5556 49.08 49.4233 56.2827 42.5 58.4245C35.5767 56.2827 30.4444 49.08 30.4444 41.2727V33.1545L42.5 27.7827L54.5556 33.1545V41.2727ZM34.595 42.2918L32.1667 44.7273L39.0556 51.6364L52.8333 37.8182L50.405 35.3655L39.0556 46.7482L34.595 42.2918Z" fill="white"/>
</svg>
