<svg width="878" height="878" viewBox="0 0 878 878" fill="none" xmlns="http://www.w3.org/2000/svg">
<circle cx="439" cy="439" r="439" fill="#533C80"/>
<path d="M492.983 358.75V238.375C492.983 230.985 486.998 225 479.608 225H452.858C445.469 225 439.483 230.985 439.483 238.375V361.199C443.68 359.711 448.127 358.75 452.833 358.75H492.983ZM599.983 438.992C599.975 409.45 576.025 385.5 546.492 385.5H452.75C445.41 385.5 439.458 391.41 439.458 398.75V399.218C439.458 421.178 457.264 439 479.224 439H508.699C516.791 439 519.733 441.993 519.733 445.688V459.23C519.733 462.816 516.732 465.733 513.146 465.917C475.93 467.823 459.512 486.573 432.854 526.564L427.58 534.481C427.093 535.212 426.467 535.839 425.738 536.328C425.008 536.817 424.19 537.157 423.329 537.33C422.468 537.502 421.581 537.503 420.72 537.333C419.859 537.162 419.039 536.824 418.309 536.337L407.183 528.913C406.452 528.427 405.824 527.801 405.335 527.072C404.846 526.342 404.506 525.524 404.334 524.663C404.161 523.802 404.16 522.915 404.331 522.054C404.501 521.193 404.84 520.373 405.327 519.643L410.602 511.727C423.751 491.998 435.847 475.564 450.15 463.175C435.713 458.569 423.901 448.028 417.657 434.377C412.148 437.228 405.987 438.992 399.375 438.992H372.625C362.31 438.992 352.989 434.971 345.875 428.559C338.753 434.979 329.432 439 319.125 439H292.375C287.66 439 283.205 438.039 279 436.534V501.679C279 530.059 290.268 557.268 310.339 577.339L332.492 599.5V653H546.475V599.533L576.493 569.507C591.547 554.45 600.002 534.029 600 512.738L599.983 438.992V438.992ZM573.225 363.682V265.125C573.225 257.735 567.24 251.75 559.85 251.75H533.1C525.71 251.75 519.725 257.735 519.725 265.125V358.75H546.475C555.904 358.75 564.815 360.681 573.225 363.682ZM292.375 412.25H319.125C326.515 412.25 332.5 406.265 332.5 398.875V291.875C332.5 284.485 326.515 278.5 319.125 278.5H292.375C284.985 278.5 279 284.485 279 291.875V398.875C279 406.265 284.985 412.25 292.375 412.25ZM372.617 412.25H399.367C406.756 412.25 412.742 406.265 412.742 398.875V265.125C412.742 257.735 406.756 251.75 399.367 251.75H372.617C365.227 251.75 359.242 257.735 359.242 265.125V398.875C359.242 406.265 365.227 412.25 372.617 412.25V412.25Z" fill="white"/>
</svg>
